<svg width="129px" height="146px" viewBox="0 0 129 146" version="1.1" xmlns="http://www.w3.org/2000/svg" xmlns:xlink="http://www.w3.org/1999/xlink">
        <g id="guli_loading" transform="translate(-644.000000, -556.000000)" fill="#999999">
            <path d="M712.531032,556 C719.710734,556 725.531032,561.820298 725.531032,569 C725.531032,575.814753 720.287394,581.40479 713.614754,581.955471 C712.725895,584.913483 712.031628,588.365702 711.53737,592.307937 L711.419941,593.267617 C713.889749,593.406542 716.475991,593.619959 719.18529,593.908367 C722.136371,594.222513 724.928969,594.858618 727.57345,595.803119 C730.063114,593.552538 731.932809,591.90673 733.182448,590.866489 C739.785316,585.370042 744.243697,583.21238 745.8837,585.534529 C748.084426,588.650628 748.118284,596.604728 745.985272,609.396827 L745.906842,609.863867 C759.779031,627.948408 767.390787,660.191687 772.637225,701.497198 L644.373201,701.502333 C646.748504,687.279308 649.719562,670.972714 653.252608,651.64252 C656.987894,631.205816 660.772266,615.90083 669.169316,606.070908 C668.4788,593.588042 669.148244,585.90906 671.178364,583.034529 C672.893891,580.605442 677.98619,582.434362 685.132198,588.560563 C686.414065,589.659494 688.287885,591.561444 690.753658,594.266414 C695.260938,593.401907 700.376078,593.00479 706.206,593.08242 C706.697233,588.665056 707.421621,584.746535 708.384866,581.323717 C703.238628,579.594713 699.531032,574.730334 699.531032,569 C699.531032,561.820298 705.35133,556 712.531032,556 Z M708.505213,602 C691.384386,602 677.505213,615.879173 677.505213,633 C677.505213,650.120827 691.384386,664 708.505213,664 C725.62604,664 739.505213,650.120827 739.505213,633 C739.505213,615.879173 725.62604,602 708.505213,602 Z M708.505213,612 C717.341769,612 724.505213,619.163444 724.505213,628 C724.505213,636.836556 717.341769,644 708.505213,644 C699.668657,644 692.505213,636.836556 692.505213,628 C692.505213,619.163444 699.668657,612 708.505213,612 Z M714.505213,620 C713.400643,620 712.505213,620.895431 712.505213,622 C712.505213,623.104569 713.400643,624 714.505213,624 C715.609782,624 716.505213,623.104569 716.505213,622 C716.505213,620.895431 715.609782,620 714.505213,620 Z" id="形状结合"></path>
        </g>
</svg>