<svg xmlns="http://www.w3.org/2000/svg" xmlns:xlink="http://www.w3.org/1999/xlink" preserveAspectRatio="xMidYMid meet" width="200" height="200" viewBox="0 0 200 200" style="width:100%;height:100%"><defs><animateMotion repeatCount="indefinite" dur="1s" begin="0s" xlink:href="#_R_G_L_0_G_L_0_G" fill="freeze" keyTimes="0;0.25;0.5;0.75;0.95;1" path="M85 95 C87.5,96.67 95.08,104.83 100,105 C104.92,105.17 114.5,96 114.5,96 C114.5,96 104.92,105.17 100,105 C95.08,104.83 87.5,96.67 85,95 C85,95 85,95 85,95 " keyPoints="0;0.26;0.5;0.74;1;1" keySplines="0.333 0 0.833 0.833;0.167 0.167 0.667 1;0.333 0 0.833 0.833;0.167 0.167 0.667 1;0 0 0 0" calcMode="spline"/><animateTransform repeatCount="indefinite" dur="1s" begin="0s" xlink:href="#_R_G_L_0_G_L_0_G" fill="freeze" attributeName="transform" from="-100 -100" to="-100 -100" type="translate" additive="sum" keyTimes="0;1" values="-100 -100;-100 -100" keySplines="0 0 1 1" calcMode="spline"/><animate attributeType="XML" attributeName="opacity" dur="1s" from="0" to="1" xlink:href="#time_group"/></defs><g id="_R_G"><g id="_R_G_L_0_G"><g id="_R_G_L_0_G_L_1_G"><path id="_R_G_L_0_G_L_1_G_D_0_P_0" fill="#000000" fill-opacity="1" fill-rule="nonzero" d=" M150.84 73.76 C150.84,73.76 150.95,73.12 150.95,73.12 C153.87,55.6 153.82,44.71 150.81,40.45 C148.57,37.27 142.46,40.22 133.42,47.75 C131.71,49.17 129.15,51.43 125.74,54.51 C122.12,53.21 118.29,52.34 114.25,51.91 C110.54,51.52 107,51.22 103.62,51.04 C103.62,51.04 103.78,49.72 103.78,49.72 C104.45,44.32 105.41,39.59 106.62,35.54 C115.76,34.79 122.94,27.13 122.94,17.8 C122.94,7.97 114.97,0 105.14,0 C95.31,0 87.34,7.97 87.34,17.8 C87.34,25.65 92.41,32.31 99.46,34.68 C98.14,39.37 97.15,44.73 96.48,50.78 C88.49,50.68 81.49,51.22 75.32,52.4 C71.94,48.7 69.37,46.09 67.62,44.59 C57.83,36.2 50.86,33.7 48.51,37.02 C45.73,40.96 44.81,51.47 45.76,68.57 C34.26,82.03 29.08,102.99 23.96,130.97 C19.12,157.44 15.06,179.77 11.8,199.25 C11.8,199.25 187.45,199.24 187.45,199.24 C180.26,142.68 169.84,98.53 150.84,73.76z  M99.63 147.9 C76.18,147.9 57.17,128.89 57.17,105.44 C57.17,82 76.18,62.99 99.63,62.99 C123.07,62.99 142.08,82 142.08,105.44 C142.08,128.89 123.07,147.9 99.63,147.9z "/></g><g id="_R_G_L_0_G_L_0_G"><path id="_R_G_L_0_G_L_0_G_D_0_P_0" fill="#000000" fill-opacity="1" fill-rule="nonzero" d=" M99.63 76.69 C87.53,76.69 77.71,86.5 77.71,98.6 C77.71,110.7 87.53,120.51 99.63,120.51 C111.73,120.51 121.54,110.7 121.54,98.6 C121.54,86.5 111.73,76.69 99.63,76.69z  M107.84 93.12 C106.33,93.12 105.1,91.89 105.1,90.38 C105.1,88.87 106.33,87.64 107.84,87.64 C109.36,87.64 110.58,88.87 110.58,90.38 C110.58,91.89 109.36,93.12 107.84,93.12z "/></g></g></g><g id="time_group"/></svg>